#!OML:ASF G:\JayActor3\Patient Classification 1\Patient 1\Session 6\male.ASF
:FULLY-SPECIFIED
:DEGREES
5046
root -8.71227 16.5493 -3.56602 5.63164 -66.1825 0.0769347
lowerback 1.5041 3.05622 8.19758
upperback 2.8259 4.00897 1.21067
thorax 2.57178 2.14971 -3.27554
lowerneck 5.07412 8.73677 9.9959
upperneck 18.9255 12.3322 -5.61812
head 5.90307 6.25957 -2.89577
rclavicle 3.97569e-014 -1.35174e-014
rhumerus -25.1298 -11.1394 -79.1021
rradius 30.4829
rwrist -0.95766
rhand -23.0014 -8.21566
rfingers 7.12502
rthumb 3.44179 -38.1676
lclavicle 3.97569e-014 -1.35174e-014
lhumerus -39.821 33.0227 66.4474
lradius 17.5359
lwrist 21.6619
lhand -14.3934 5.43345
lfingers 7.12502
lthumb 11.7497 35.0839
rfemur -5.53816 3.74579 10.8426
rtibia 28.544
rfoot -27.134 -29.1293
rtoes 1.35062
lfemur 1.3215 -3.73098 -5.81878
ltibia -1.59028e-014
lfoot -1.09883 13.1518
ltoes -4.94205
5047
root -8.72664 16.5498 -3.55346 5.51641 -66.1251 0.164735
lowerback 1.42876 3.10196 8.12353
upperback 2.7194 4.07266 1.14327
thorax 2.5096 2.17703 -3.30231
lowerneck 5.08136 8.86565 10.0437
upperneck 18.3326 12.5401 -5.82333
head 5.74607 6.35992 -2.96101
rclavicle 5.56597e-015 1.27222e-014
rhumerus -25.6035 -11.5931 -78.9993
rradius 30.4034
rwrist -0.839633
rhand -22.9179 -8.18852
rfingers 7.12502
rthumb 3.52239 -38.1392
lclavicle 5.56597e-015 1.27222e-014
lhumerus -38.9647 32.4 67.1254
lradius 18.0768
lwrist 22.3843
lhand -14.5622 5.36007
lfingers 7.12502
lthumb 11.587 35.0197
rfemur -5.38349 3.77529 10.8091
rtibia 28.4756
rfoot -27.2203 -29.1681
rtoes 1.5991
lfemur 1.39984 -3.7978 -5.86096
ltibia -4.77083e-015
lfoot -1.10088 13.0577
ltoes -5.089
5048
root -8.74106 16.5497 -3.54105 5.4457 -66.0627 0.210406
lowerback 1.34888 3.14587 8.06415
upperback 2.60833 4.13351 1.07893
thorax 2.44587 2.20301 -3.33391
lowerneck 5.08331 8.9904 10.0842
upperneck 17.7266 12.744 -6.06081
head 5.58813 6.45677 -3.03558
rclavicle -4.35338e-014 -2.62396e-014
rhumerus -26.0605 -12.1275 -78.8691
rradius 30.2662
rwrist -0.592449
rhand -22.7801 -8.15737
rfingers 7.12502
rthumb 3.65545 -38.1058
lclavicle -4.35338e-014 -2.62396e-014
lhumerus -38.0926 31.7657 67.79
lradius 18.5841
lwrist 22.9733
lhand -14.7362 5.32764
lfingers 7.12502
lthumb 11.4192 34.9967
rfemur -5.22007 3.80912 10.7959
rtibia 28.3875
rfoot -27.307 -29.2112
rtoes 1.81138
lfemur 1.47214 -3.86638 -5.88559
ltibia 4.77083e-015
lfoot -1.10969 12.9724
ltoes -5.23574
5049
root -8.75544 16.5488 -3.52844 5.42839 -65.9969 0.201024
lowerback 1.26639 3.18653 8.02868
upperback 2.49237 4.18976 1.01718
thorax 2.37979 2.22689 -3.3761
lowerneck 5.08417 9.1104 10.118
upperneck 17.1084 12.9413 -6.31997
head 5.42811 6.54954 -3.11659
rclavicle 2.64384e-014 -1.59028e-015
rhumerus -26.5043 -12.7392 -78.7123
rradius 30.0743
rwrist -0.233231
rhand -22.5958 -8.11012
rfingers 7.12502
rthumb 3.83344 -38.0554
lclavicle 2.64384e-014 -1.59028e-015
lhumerus -37.2214 31.1151 68.4301
lradius 19.0656
lwrist 23.4589
lhand -14.8825 5.30495
lfingers 7.12502
lthumb 11.2781 34.9817
rfemur -5.04516 3.83675 10.8039
rtibia 28.2784
rfoot -27.3827 -29.2464
rtoes 1.98652
lfemur 1.54254 -3.93561 -5.88999
ltibia -6.36111e-015
lfoot -1.12956 12.9016
ltoes -5.37644
5050
root -8.76978 16.547 -3.51553 5.47654 -65.9272 0.121846
lowerback 1.17926 3.22318 8.02323
upperback 2.37436 4.2399 0.961329
thorax 2.31552 2.24813 -3.42861
lowerneck 5.07742 9.22572 10.1348
upperneck 16.481 13.1296 -6.59024
head 5.2665 6.63701 -3.19895
rclavicle -4.51241e-014 -7.15625e-015
rhumerus -26.9291 -13.4124 -78.5298
rradius 29.8291
rwrist 0.194142
rhand -22.3987 -8.04463
rfingers 7.12502
rthumb 4.02379 -37.9864
lclavicle -4.51241e-014 -7.15625e-015
lhumerus -36.3504 30.4771 69.0355
lradius 19.5117
lwrist 23.7924
lhand -14.9679 5.29054
lfingers 7.12502
lthumb 11.1957 34.9718
rfemur -4.85738 3.85021 10.8378
rtibia 28.1475
rfoot -27.4296 -29.2737
rtoes 2.10875
lfemur 1.61297 -4.00588 -5.86867
ltibia -4.77083e-015
lfoot -1.163 12.8526
ltoes -5.50183
5051
root -8.78429 16.5447 -3.50203 5.6078 -65.8641 -0.0451032
lowerback 1.08118 3.25928 8.0556
upperback 2.25572 4.28776 0.912205
thorax 2.25914 2.26892 -3.49435
lowerneck 5.06309 9.33351 10.1491
upperneck 15.8499 13.307 -6.886
head 5.10667 6.7185 -3.28928
rclavicle 1.17283e-014 8.74653e-015
rhumerus -27.3319 -14.1309 -78.3277
rradius 29.5331
rwrist 0.653195
rhand -22.2091 -7.98219
rfingers 7.12502
rthumb 4.20688 -37.9204
lclavicle 1.17283e-014 8.74653e-015
lhumerus -35.4802 29.8213 69.6212
lradius 19.9336
lwrist 24.0344
lhand -15.0347 5.26731
lfingers 7.12502
lthumb 11.1312 34.9521
rfemur -4.66269 3.85548 10.9035
rtibia 27.9971
rfoot -27.4369 -29.2956
rtoes 2.17295
lfemur 1.68803 -4.06596 -5.81554
ltibia -3.18055e-015
lfoot -1.21749 12.8257
ltoes -5.60239
5052
root -8.79869 16.5418 -3.48813 5.81485 -65.8054 -0.290742
lowerback 0.974775 3.28553 8.11389
upperback 2.13634 4.32108 0.875139
thorax 2.20617 2.28265 -3.56178
lowerneck 5.04382 9.44108 10.1548
upperneck 15.218 13.4837 -7.21125
head 4.94993 6.79862 -3.38731
rclavicle 7.41467e-014 3.02153e-014
rhumerus -27.701 -14.849 -78.117
rradius 29.1836
rwrist 1.1072
rhand -22.056 -7.9268
rfingers 7.12502
rthumb 4.35474 -37.862
lclavicle 7.41467e-014 3.02153e-014
lhumerus -34.6205 29.193 70.1797
lradius 20.3282
lwrist 24.1939
lhand -15.1078 5.2011
lfingers 7.12502
lthumb 11.0608 34.8896
rfemur -4.46479 3.84718 10.9971
rtibia 27.8296
rfoot -27.4109 -29.3066
rtoes 2.19184
lfemur 1.76397 -4.11779 -5.73358
ltibia 0
lfoot -1.28381 12.8253
ltoes -5.69339
5053
root -8.81296 16.5386 -3.47396 6.08643 -65.7576 -0.605891
lowerback 0.865861 3.30731 8.19626
upperback 2.01658 4.34762 0.847019
thorax 2.15472 2.2931 -3.63327
lowerneck 5.00606 9.54063 10.1592
upperneck 14.6036 13.6483 -7.56414
head 4.80342 6.87195 -3.49314
rclavicle -1.19271e-013 7.95139e-016
rhumerus -28.038 -15.572 -77.8967
rradius 28.7812
rwrist 1.54756
rhand -21.9422 -7.88259
rfingers 7.12502
rthumb 4.46456 -37.8155
lclavicle -1.19271e-013 7.95139e-016
lhumerus -33.7667 28.5567 70.7299
lradius 20.7097
lwrist 24.3164
lhand -15.2169 5.12491
lfingers 7.12502
lthumb 10.9556 34.8191
rfemur -4.26601 3.83215 11.1154
rtibia 27.6504
rfoot -27.3595 -29.3054
rtoes 2.18619
lfemur 1.84594 -4.15569 -5.62686
ltibia 1.90833e-014
lfoot -1.3617 12.847
ltoes -5.77071
5054
root -8.82685 16.5351 -3.45984 6.41695 -65.7197 -0.981449
lowerback 0.759929 3.32412 8.29767
upperback 1.8921 4.36755 0.826638
thorax 2.09685 2.29988 -3.70782
lowerneck 4.95716 9.62873 10.1722
upperneck 14.0117 13.7972 -7.94716
head 4.66794 6.93719 -3.60948
rclavicle -3.97569e-016 2.14687e-014
rhumerus -28.3467 -16.2902 -77.6693
rradius 28.3322
rwrist 1.96134
rhand -21.865 -7.85823
rfingers 7.12502
rthumb 4.53914 -37.7896
lclavicle -3.97569e-016 2.14687e-014
lhumerus -32.9298 27.9236 71.2619
lradius 21.0803
lwrist 24.3975
lhand -15.3547 5.04562
lfingers 7.12502
lthumb 10.8226 34.7468
rfemur -4.07407 3.81431 11.2566
rtibia 27.4657
rfoot -27.2901 -29.2975
rtoes 2.15617
lfemur 1.92917 -4.17988 -5.49683
ltibia -3.18055e-015
lfoot -1.4557 12.8852
ltoes -5.81635
5055
root -8.84047 16.5312 -3.446 6.77769 -65.6933 -1.39323
lowerback 0.664628 3.33646 8.40585
upperback 1.76286 4.38243 0.811842
thorax 2.02753 2.30338 -3.78137
lowerneck 4.90002 9.70532 10.1925
upperneck 13.4487 13.9294 -8.35027
head 4.54413 6.99418 -3.73309
rclavicle 1.6201e-014 1.82882e-014
rhumerus -28.6304 -17.0054 -77.4322
rradius 27.8371
rwrist 2.35001
rhand -21.8149 -7.8506
rfingers 7.12502
rthumb 4.5875 -37.7809
lclavicle 1.6201e-014 1.82882e-014
lhumerus -32.116 27.2818 71.7802
lradius 21.4487
lwrist 24.4737
lhand -15.5194 4.97425
lfingers 7.12502
lthumb 10.6638 34.6836
rfemur -3.88595 3.7982 11.4113
rtibia 27.2824
rfoot -27.2166 -29.2786
rtoes 2.12586
lfemur 2.02099 -4.19109 -5.35294
ltibia -9.54166e-015
lfoot -1.56477 12.9357
ltoes -5.81104
